<svg version="1.1" xmlns="http://www.w3.org/2000/svg" viewBox="0 0 483.234375 119.68488391337905" width="966.46875" height="239.3697678267581">
  <!-- svg-source:excalidraw -->
  
  <defs>
    <style class="style-fonts">
      @font-face {
        font-family: "Virgil";
        src: url("https://excalidraw.com/Virgil.woff2");
      }
      @font-face {
        font-family: "Cascadia";
        src: url("https://excalidraw.com/Cascadia.woff2");
      }
    </style>
    
  </defs>
  <rect x="0" y="0" width="483.234375" height="119.68488391337905" fill="#ffffff"></rect><g stroke-linecap="round" transform="translate(10 12.251503395652207) rotate(0 231.6171875 47.787109375)"><path d="M23.89 0 M23.89 0 C161.01 -0.47, 296.91 -1.42, 439.34 0 M23.89 0 C164.59 -0.95, 305.96 -0.33, 439.34 0 M439.34 0 C455.8 1.33, 462.78 8.51, 463.23 23.89 M439.34 0 C453.24 2.13, 463.54 9.77, 463.23 23.89 M463.23 23.89 C464.5 35.86, 461.84 44.56, 463.23 71.68 M463.23 23.89 C463.68 36.74, 462.82 49.09, 463.23 71.68 M463.23 71.68 C462.51 87.98, 454.32 94.93, 439.34 95.57 M463.23 71.68 C464.97 86.94, 455.37 95.1, 439.34 95.57 M439.34 95.57 C303.83 94.41, 166.2 93.97, 23.89 95.57 M439.34 95.57 C288.34 96.44, 138.15 96.64, 23.89 95.57 M23.89 95.57 C7.59 94.87, -1.81 88.95, 0 71.68 M23.89 95.57 C6.87 95.98, -1.83 88.83, 0 71.68 M0 71.68 C0.75 59.5, -0.39 42.9, 0 23.89 M0 71.68 C-0.52 61.61, 0.26 51.59, 0 23.89 M0 23.89 C1.7 7.06, 6.61 -1.55, 23.89 0 M0 23.89 C1.24 8.61, 9.09 -1.28, 23.89 0" stroke="#000000" stroke-width="1" fill="none"></path></g><g transform="translate(47.6796875 51.73587839565221) rotate(0 6.17999267578125 12.5)"><text x="0" y="0" font-family="Virgil, Segoe UI Emoji" font-size="20px" fill="#000000" text-anchor="start" style="white-space: pre;" direction="ltr" dominant-baseline="text-before-edge">5</text></g><g transform="translate(167.90234375 52.15775339565221) rotate(0 7.1199951171875 12.5)"><text x="0" y="0" font-family="Virgil, Segoe UI Emoji" font-size="20px" fill="#000000" text-anchor="start" style="white-space: pre;" direction="ltr" dominant-baseline="text-before-edge">2</text></g><g transform="translate(408.09765625 51.16947214565221) rotate(0 2.7099990844726562 12.5)"><text x="0" y="0" font-family="Virgil, Segoe UI Emoji" font-size="20px" fill="#000000" text-anchor="start" style="white-space: pre;" direction="ltr" dominant-baseline="text-before-edge">1</text></g><g transform="translate(293.60546875 54.94290964565221) rotate(0 6.399993896484375 12.5)"><text x="0" y="0" font-family="Virgil, Segoe UI Emoji" font-size="20px" fill="#000000" text-anchor="start" style="white-space: pre;" direction="ltr" dominant-baseline="text-before-edge">6</text></g><g stroke-linecap="round"><g transform="translate(125.45703125 11.618690895652207) rotate(0 -0.22868272808153733 48.82029707989659)"><path d="M0.33 0.41 C0.59 16.5, 0.47 80.62, 0.45 97.05 M-0.95 -0.43 C-0.74 15.74, -0.42 81.81, -0.34 98.07" stroke="#000000" stroke-width="1" fill="none"></path></g></g><mask></mask><g stroke-linecap="round"><g transform="translate(244.0646202280816 9.384331315755844) rotate(0 0.42297099247088 49.45507431588135)"><path d="M0.78 1.1 C1 17.18, 1.26 80.94, 1.03 97.19 M-0.27 0.63 C-0.11 16.78, 0.17 82.29, 0.54 98.28" stroke="#000000" stroke-width="1" fill="none"></path></g></g><mask></mask><g stroke-linecap="round"><g transform="translate(362.8536827280816 10.536675065755844) rotate(0 -0.2872591799371662 48.93608063507361)"><path d="M0.58 -0.54 C0.61 15.55, -0.04 80.74, -0.08 97.27 M-0.57 1.8 C-0.7 17.95, -1.2 82.6, -1.16 98.41" stroke="#000000" stroke-width="1" fill="none"></path></g></g><mask></mask></svg>